<svg xmlns="http://www.w3.org/2000/svg" viewBox="0 0 279.77 81.26"><defs><style>.cls-1{fill:#00bbda;}.cls-2{fill:#ece95b;}.cls-3{fill:#fff;}</style></defs><g id="Layer_2" data-name="Layer 2"><g id="Layer_2-2" data-name="Layer 2"><path class="cls-1" d="M44.21,33.36c0,.37,0,.72,0,1.06s-.06.7-.1,1.07a21.8,21.8,0,0,1-1.38,5.42,22.73,22.73,0,0,1-2.65,4.87,21.51,21.51,0,0,1-3.78,4.09,22.48,22.48,0,0,1-4.71,3.05A22.14,22.14,0,0,1,20.42,55a21.88,21.88,0,0,1-18-11.91A21.81,21.81,0,0,1,0,32.4a22.72,22.72,0,0,1,4.6-12.91,21.1,21.1,0,0,1,6.52-5.66,22.27,22.27,0,0,1,8.17-2.71,22.09,22.09,0,0,1,16.26,4.46h.07V4.26a4.09,4.09,0,0,1,1.25-3,4.36,4.36,0,0,1,6.09,0,4.08,4.08,0,0,1,1.24,3v29.1Zm-11.9,8.58a13.94,13.94,0,0,0,3.12-6.42,13.22,13.22,0,0,0-.51-7.1A13.35,13.35,0,0,0,32,23.68a13.66,13.66,0,0,0-4.5-3.16,13.31,13.31,0,0,0-5.45-1.16,12.85,12.85,0,0,0-5.38,1.16c-.73.37-1.42.76-2.09,1.17a12.19,12.19,0,0,0-1.88,1.44,14.55,14.55,0,0,0-2.88,4.09,12.83,12.83,0,0,0-1.23,4.9A14,14,0,0,0,9,36.62a11.81,11.81,0,0,0,2,4.09,13.71,13.71,0,0,0,3.32,3.39,13,13,0,0,0,4.22,2,15.13,15.13,0,0,0,4.52.41,12.55,12.55,0,0,0,4.46-1.1c-.37.19-.74.36-1.1.52a12.36,12.36,0,0,1-1.17.44c.87-.32,1.76-.68,2.68-1.1A14,14,0,0,0,32.31,41.94Z"/><path class="cls-1" d="M96.59,33a4.31,4.31,0,0,1-1.34,3,4.49,4.49,0,0,1-3.06,1.3H61.65a10.83,10.83,0,0,0,.75,1.72c.23.46.46.89.69,1.3l.69,1.24c-.23-.37-.44-.72-.62-1.07s-.37-.69-.55-1.06A14,14,0,0,0,65.42,43a13.19,13.19,0,0,0,3.85,2.47,14.58,14.58,0,0,0,5,1.1h.27a4.1,4.1,0,0,1,4.19,4.19,4.18,4.18,0,0,1-1.2,3,4,4,0,0,1-3,1.23h-.79A3.38,3.38,0,0,1,73,55a21.37,21.37,0,0,1-5.63-1.16,23.56,23.56,0,0,1-5.11-2.51A21.71,21.71,0,0,1,58,47.64a21.23,21.23,0,0,1-3.23-4.74A22.16,22.16,0,0,1,52.48,32a21.54,21.54,0,0,1,3.26-10.6l.59-.86A9.23,9.23,0,0,1,57,19.7a20.75,20.75,0,0,1,6.18-5.59,23,23,0,0,1,7.76-2.92A22.4,22.4,0,0,1,81.35,12,21,21,0,0,1,90.2,17.5a22.94,22.94,0,0,1,4.71,7,20.61,20.61,0,0,1,1.68,8.23V33ZM67.28,21.49a13.74,13.74,0,0,0-3.44,3.19,14.39,14.39,0,0,0-2.19,4.08H87.46a14.88,14.88,0,0,0-1-2.2A13.16,13.16,0,0,0,83,22.34a14,14,0,0,0-5-2.5,12.58,12.58,0,0,0-5.5-.31A13.74,13.74,0,0,0,67.28,21.49Z"/><path class="cls-2" d="M132.33,48a4.25,4.25,0,0,1,1.23,3.06,4.2,4.2,0,0,1-4.25,4.25h-5.08a21.13,21.13,0,0,1-8.55-1.75,22.43,22.43,0,0,1-11.79-11.73,21.82,21.82,0,0,1,0-17.17,22.43,22.43,0,0,1,11.79-11.73,21.13,21.13,0,0,1,8.55-1.75h5.08a4.2,4.2,0,0,1,4.25,4.25,4.25,4.25,0,0,1-1.23,3.06,4.07,4.07,0,0,1-3,1.27h-5.08A12.93,12.93,0,0,0,119,20.83a14.07,14.07,0,0,0-4.29,2.88A13.44,13.44,0,0,0,111.77,28a13.06,13.06,0,0,0-1.06,5.22,13.22,13.22,0,0,0,1.06,5.29,13.44,13.44,0,0,0,2.92,4.29A14.07,14.07,0,0,0,119,45.68a12.93,12.93,0,0,0,5.25,1.06h5.08A4.07,4.07,0,0,1,132.33,48Z"/><path class="cls-2" d="M154.43,11.46a21.72,21.72,0,0,1,10.4.76,21.5,21.5,0,0,1,8.89,5.49,21.74,21.74,0,0,1,4.77,7.17,21.12,21.12,0,0,1,1.61,8.48A21,21,0,0,1,179,40.19a22.56,22.56,0,0,1-3.19,6.14,21.77,21.77,0,0,1-8.51,6.9,22.1,22.1,0,0,1-10.71,2,21.8,21.8,0,0,1-5.63-1.17,22.66,22.66,0,0,1-9.4-6.25,21.16,21.16,0,0,1-3.23-4.73,23.32,23.32,0,0,1-1.82-5.29,21,21,0,0,1-.44-5.53A24.06,24.06,0,0,1,137,26.8a20.23,20.23,0,0,1,2.3-5.11,13.65,13.65,0,0,1,1.17-1.79h.07a20.6,20.6,0,0,1,6.17-5.56A24.18,24.18,0,0,1,154.43,11.46Zm14.83,29.45a13.81,13.81,0,0,0,2-4.6,13.62,13.62,0,0,0,.24-5A13.12,13.12,0,0,0,170,26.84a14.35,14.35,0,0,0-3.57-4.26,12.58,12.58,0,0,0-4.94-2.47,13,13,0,0,0-5.49-.34,13.18,13.18,0,0,0-5.22,1.92A13.71,13.71,0,0,0,146,27a13.23,13.23,0,0,0-1.51,7,12.58,12.58,0,0,0,1.44,5.35c.23.41.45.84.65,1.27a10.62,10.62,0,0,0,.72,1.27c-.41-.69-.8-1.4-1.16-2.13a13.51,13.51,0,0,0,2.81,3.54,14.85,14.85,0,0,0,3.84,2.5,12.87,12.87,0,0,0,9.27.41,13.45,13.45,0,0,0,4-2A14.23,14.23,0,0,0,169.26,40.91Z"/><path class="cls-2" d="M227.4,33.56c0,.37,0,.73,0,1.07s-.05.7-.1,1.06a22.11,22.11,0,0,1-1.37,5.42A22.8,22.8,0,0,1,223.24,46a22.12,22.12,0,0,1-3.78,4.08,23.06,23.06,0,0,1-4.71,3.06,22.36,22.36,0,0,1-11.14,2.06,22,22,0,0,1-18-11.91,22,22,0,0,1-2.44-10.68,22.77,22.77,0,0,1,1.31-6.79,22.31,22.31,0,0,1,3.29-6.11A21.2,21.2,0,0,1,194.31,14a22.23,22.23,0,0,1,8.17-2.72,22.08,22.08,0,0,1,16.27,4.47h.07V4.46a4.08,4.08,0,0,1,1.24-3,4.36,4.36,0,0,1,6.09,0,4.09,4.09,0,0,1,1.25,3v29.1Zm-11.91,8.58a13.83,13.83,0,0,0,3.13-6.41,13.16,13.16,0,0,0-.52-7.11,13.38,13.38,0,0,0-2.91-4.73,13.57,13.57,0,0,0-4.5-3.16,13.19,13.19,0,0,0-5.45-1.17,12.67,12.67,0,0,0-5.38,1.17c-.73.37-1.43.75-2.09,1.17a12.77,12.77,0,0,0-1.89,1.44A14.82,14.82,0,0,0,193,27.42a12.85,12.85,0,0,0-1.24,4.91,14.21,14.21,0,0,0,.45,4.49,12,12,0,0,0,1.95,4.09,13.79,13.79,0,0,0,3.33,3.4,12.89,12.89,0,0,0,4.21,2,14.57,14.57,0,0,0,4.53.41,12.44,12.44,0,0,0,4.45-1.09c-.36.18-.73.35-1.1.51s-.75.31-1.17.45c.87-.32,1.77-.69,2.68-1.1A13.94,13.94,0,0,0,215.49,42.14Z"/><path class="cls-2" d="M279.77,33.22a4.25,4.25,0,0,1-1.34,3,4.5,4.5,0,0,1-3.05,1.31H244.83a11.85,11.85,0,0,0,.76,1.71c.23.46.46.89.68,1.31L247,41.8c-.23-.36-.43-.72-.62-1.06l-.55-1.07a14,14,0,0,0,2.82,3.57,12.81,12.81,0,0,0,3.84,2.47,14.35,14.35,0,0,0,5,1.1h.28A4.12,4.12,0,0,1,261.93,51a4.17,4.17,0,0,1-1.21,3,4,4,0,0,1-3,1.24H257a4.18,4.18,0,0,1-.72-.07A21.8,21.8,0,0,1,250.6,54a23.34,23.34,0,0,1-5.11-2.51,21.71,21.71,0,0,1-4.29-3.67A20.84,20.84,0,0,1,238,43.11a22.18,22.18,0,0,1-2.3-10.88,21.58,21.58,0,0,1,3.26-10.61l.58-.86c.21-.29.43-.58.66-.86a21,21,0,0,1,6.17-5.59,23.49,23.49,0,0,1,7.76-2.92,22.4,22.4,0,0,1,10.43.83,20.9,20.9,0,0,1,8.86,5.49,22.86,22.86,0,0,1,4.7,7A20.65,20.65,0,0,1,279.77,33v.27ZM250.46,21.69A13.71,13.71,0,0,0,247,24.88a14.59,14.59,0,0,0-2.2,4.09h25.81a14.88,14.88,0,0,0-1-2.2,13,13,0,0,0-3.53-4.22,14.1,14.1,0,0,0-5-2.51,12.84,12.84,0,0,0-5.49-.31A13.72,13.72,0,0,0,250.46,21.69Z"/><path class="cls-3" d="M96.82,71h1v7.36h-1v-.48a2.49,2.49,0,0,1-1.45.48h-.05a2.45,2.45,0,0,1-2-1,2.5,2.5,0,0,1-.43-1.4,2.46,2.46,0,0,1,1-2,2.53,2.53,0,0,1,1.43-.43,2.44,2.44,0,0,1,1.44.48h0Zm-2.95,4.91a1.45,1.45,0,0,0,.73,1.27,1.41,1.41,0,0,0,.77.21,1.45,1.45,0,0,0,1.21-.68,1.41,1.41,0,0,0,.24-.76v-.08a1.46,1.46,0,0,0-.65-1.18,1.51,1.51,0,0,0-.84-.26,1.49,1.49,0,0,0-1.22.67A1.52,1.52,0,0,0,93.87,75.86Z"/><path class="cls-3" d="M102.27,73.41a2.42,2.42,0,0,1,1.87.87,2.45,2.45,0,0,1,.58,1.58,3.52,3.52,0,0,1,0,.49h-3.79a1.46,1.46,0,0,0,.72.83,1.48,1.48,0,0,0,1.71-.27l.68.68v0a2.43,2.43,0,0,1-1.72.7h0a2.44,2.44,0,0,1-1.87-.86,2.53,2.53,0,0,1-.58-1.59,2.45,2.45,0,0,1,2.47-2.45Zm-1.39,2h2.77a1.51,1.51,0,0,0-.67-.8,1.69,1.69,0,0,0-.73-.19,1.49,1.49,0,0,0-1.28.76Z"/><path class="cls-3" d="M108.34,73.41h2.84v1h-2.84c-.26,0-.43.05-.49.13a.72.72,0,0,0-.14.39.43.43,0,0,0,.3.44l.18,0h1.31a1.5,1.5,0,0,1,1.56.91,2,2,0,0,1,.1.57,1.36,1.36,0,0,1-.81,1.31,1.47,1.47,0,0,1-.61.15h-3v-1h2.93a.48.48,0,0,0,.47-.29l0-.21c0-.33-.2-.49-.6-.49h-1.42a1.55,1.55,0,0,1-1-.43,1.42,1.42,0,0,1-.4-1,1.6,1.6,0,0,1,.39-1A1.51,1.51,0,0,1,108.34,73.41Z"/><path class="cls-3" d="M113.69,72.09a.48.48,0,0,1,.47.39v.11a.48.48,0,0,1-.37.47h-.14a.47.47,0,0,1-.46-.37v-.13a.47.47,0,0,1,.35-.46Zm-.5,1.32h1v4.9h-1Z"/><path class="cls-3" d="M118.63,73.4a2.43,2.43,0,0,1,1.46.48h0V73.4h1v5.26a2.35,2.35,0,0,1-2.45,2.6v-1a1.34,1.34,0,0,0,1.35-.87,2.4,2.4,0,0,0,.13-.74v-.85h0a2.36,2.36,0,0,1-1.46.49h0a2.44,2.44,0,0,1-2-1.07,2.41,2.41,0,0,1-.42-1.3v-.18a2.36,2.36,0,0,1,.65-1.59A2.47,2.47,0,0,1,118.63,73.4Zm-1.48,2.39v.12a1.45,1.45,0,0,0,.57,1.11,1.49,1.49,0,0,0,2.26-.56,2,2,0,0,0,.13-.61,1.49,1.49,0,0,0-.53-1.12,1.43,1.43,0,0,0-1-.35,1.48,1.48,0,0,0-1.48,1.41Z"/><path class="cls-3" d="M123.09,73.41h1v.43h0a2.47,2.47,0,0,1,1.46-.43,2.28,2.28,0,0,1,2.27,1.47,2.5,2.5,0,0,1,.19.94v2.49h-1V75.86a1.54,1.54,0,0,0-.38-1,1.44,1.44,0,0,0-1.1-.43,1.32,1.32,0,0,0-1.35.87,1.77,1.77,0,0,0-.12.64v2.42h-1Z"/><path class="cls-3" d="M136.58,73.41a2.43,2.43,0,0,1,1.46.48h0v-.48h1v4.9h-1v-.48a2.44,2.44,0,0,1-1.4.48h-.13a2.42,2.42,0,0,1-1.91-1,2.51,2.51,0,0,1-.49-1.49,2.42,2.42,0,0,1,1.05-2A2.39,2.39,0,0,1,136.58,73.41Zm-1.48,2.45a1.48,1.48,0,0,0,1.46,1.48h.07a1.47,1.47,0,0,0,1.16-.62,1.45,1.45,0,0,0,.27-.81v-.07a1.46,1.46,0,0,0-.73-1.25,1.52,1.52,0,0,0-.75-.21,1.48,1.48,0,0,0-1.2.63A1.54,1.54,0,0,0,135.1,75.86Z"/><path class="cls-3" d="M141,73.41h1v.43h0a2.47,2.47,0,0,1,1.46-.43,2.28,2.28,0,0,1,2.27,1.47,2.5,2.5,0,0,1,.19.94v2.49h-1V75.86a1.54,1.54,0,0,0-.38-1,1.44,1.44,0,0,0-1.1-.43,1.32,1.32,0,0,0-1.35.87,1.77,1.77,0,0,0-.12.64v2.42h-1Z"/><path class="cls-3" d="M151.89,71h1v7.36h-1v-.48a2.49,2.49,0,0,1-1.45.48h-.05a2.46,2.46,0,0,1-2-1,2.57,2.57,0,0,1-.42-1.4,2.46,2.46,0,0,1,1-2,2.53,2.53,0,0,1,1.43-.43,2.39,2.39,0,0,1,1.43.48h0Zm-3,4.91a1.49,1.49,0,0,0,1.51,1.48,1.45,1.45,0,0,0,1.21-.68,1.41,1.41,0,0,0,.24-.76v-.08a1.46,1.46,0,0,0-.65-1.18,1.52,1.52,0,0,0-.85-.26,1.49,1.49,0,0,0-1.21.67A1.54,1.54,0,0,0,148.93,75.86Z"/><path class="cls-3" d="M161.46,73.41a2.42,2.42,0,0,1,2,1l0,0a9,9,0,0,1-.8.58,1.45,1.45,0,0,0-1.24-.67,1.5,1.5,0,0,0-1.25.71,1.66,1.66,0,0,0-.21.77,1.49,1.49,0,0,0,1.48,1.48,1.51,1.51,0,0,0,1.24-.67l.78.58a2.52,2.52,0,0,1-.47.51,2.4,2.4,0,0,1-1.53.55h0a2.43,2.43,0,0,1-1.95-1,2.53,2.53,0,0,1-.5-1.5,2.45,2.45,0,0,1,2.47-2.45Z"/><path class="cls-3" d="M167.65,73.41a2.46,2.46,0,0,1,2.44,2.45,2.49,2.49,0,0,1-.79,1.81,2.44,2.44,0,0,1-1.66.64h0a2.44,2.44,0,0,1-1.87-.86,2.46,2.46,0,0,1-.14-3A2.45,2.45,0,0,1,167.65,73.41Zm-1.49,2.37v.08h0v.07a1.48,1.48,0,0,0,.57,1.11,1.57,1.57,0,0,0,.9.3,1.46,1.46,0,0,0,1.2-.62,1.48,1.48,0,0,0-.42-2.12,1.69,1.69,0,0,0-.8-.22,1.47,1.47,0,0,0-1.23.69A1.49,1.49,0,0,0,166.16,75.78Z"/><path class="cls-3" d="M176,71h1v7.36h-1v-.48a2.49,2.49,0,0,1-1.45.48h-.05a2.46,2.46,0,0,1-2-1,2.57,2.57,0,0,1-.42-1.4,2.46,2.46,0,0,1,1.05-2,2.53,2.53,0,0,1,1.43-.43,2.39,2.39,0,0,1,1.43.48h0Zm-3,4.91a1.49,1.49,0,0,0,1.51,1.48,1.45,1.45,0,0,0,1.21-.68,1.41,1.41,0,0,0,.24-.76v-.08a1.46,1.46,0,0,0-.65-1.18,1.52,1.52,0,0,0-.85-.26,1.49,1.49,0,0,0-1.21.67A1.54,1.54,0,0,0,173.07,75.86Z"/><path class="cls-3" d="M181.48,73.41a2.45,2.45,0,0,1,2.45,2.45,3.52,3.52,0,0,1-.05.49h-3.79a1.46,1.46,0,0,0,.72.83,1.46,1.46,0,0,0,1.7-.27l.69.68v0a2.43,2.43,0,0,1-1.72.7h0a2.44,2.44,0,0,1-1.87-.86,2.53,2.53,0,0,1-.58-1.59,2.45,2.45,0,0,1,2.47-2.45Zm-1.39,2h2.76a1.49,1.49,0,0,0-.66-.8,1.69,1.69,0,0,0-.73-.19,1.49,1.49,0,0,0-1.28.76Z"/></g></g></svg>